<?xml version="1.0" encoding="UTF-8"?>
<svg xmlns="http://www.w3.org/2000/svg" viewBox="0 0 512 512">
  <!-- Background circle -->
  <circle cx="256" cy="256" r="256" fill="#2C3E50"/>
  
  <!-- Laptop base -->
  <rect x="156" y="260" width="200" height="120" rx="8" fill="#34495E"/>
  <rect x="156" y="250" width="200" height="10" fill="#7F8C8D"/>
  
  <!-- Screen -->
  <rect x="166" y="180" width="180" height="120" rx="5" fill="#ECF0F1"/>
  <rect x="176" y="190" width="160" height="100" fill="#2980B9"/>
  
  <!-- Code on screen -->
  <rect x="186" y="200" width="60" height="6" fill="#E74C3C"/>
  <rect x="186" y="216" width="100" height="6" fill="#1ABC9C"/>
  <rect x="186" y="232" width="80" height="6" fill="#F1C40F"/>
  <rect x="186" y="248" width="90" height="6" fill="#1ABC9C"/>
  <rect x="186" y="264" width="40" height="6" fill="#E74C3C"/>
  <rect x="256" y="264" width="30" height="6" fill="#F1C40F"/>
  <rect x="186" y="280" width="70" height="6" fill="#1ABC9C"/>
  
  <!-- Head & face -->
  <circle cx="256" cy="120" r="50" fill="#E67E22"/>
  <rect x="231" y="145" width="50" height="30" rx="10" fill="#E67E22"/>
  
  <!-- Glasses -->
  <rect x="226" y="115" width="60" height="15" rx="5" fill="#34495E"/>
  <rect x="226" y="115" width="25" height="15" rx="5" fill="#34495E"/>
  <rect x="261" y="115" width="25" height="15" rx="5" fill="#34495E"/>
  <rect x="251" y="115" width="10" height="3" fill="#34495E"/>
  
  <!-- Smile -->
  <path d="M241,135 Q256,145 271,135" fill="none" stroke="#FFF" stroke-width="3" stroke-linecap="round"/>
</svg> 