<?xml version="1.0" encoding="UTF-8"?>
<svg xmlns="http://www.w3.org/2000/svg" viewBox="0 0 512 512">
  <!-- Background circle -->
  <circle cx="256" cy="256" r="256" fill="#16a085"/>
  
  <!-- Circuit board pattern -->
  <path d="M130,130 L180,130 L180,180 L230,180 L230,130 L330,130 L330,230 L380,230 L380,380 L330,380 L330,330 L280,330 L280,280 L230,280 L230,380 L130,380 L130,130" 
        fill="none" stroke="#fff" stroke-width="10" stroke-linecap="round" stroke-linejoin="round"/>
  <circle cx="180" cy="180" r="10" fill="#fff"/>
  <circle cx="230" cy="180" r="10" fill="#fff"/>
  <circle cx="230" cy="130" r="10" fill="#fff"/>
  <circle cx="330" cy="130" r="10" fill="#fff"/>
  <circle cx="330" cy="230" r="10" fill="#fff"/>
  <circle cx="380" cy="230" r="10" fill="#fff"/>
  <circle cx="380" cy="380" r="10" fill="#fff"/>
  <circle cx="330" cy="380" r="10" fill="#fff"/>
  <circle cx="330" cy="330" r="10" fill="#fff"/>
  <circle cx="280" cy="330" r="10" fill="#fff"/>
  <circle cx="280" cy="280" r="10" fill="#fff"/>
  <circle cx="230" cy="280" r="10" fill="#fff"/>
  <circle cx="230" cy="380" r="10" fill="#fff"/>
  <circle cx="130" cy="380" r="10" fill="#fff"/>
  <circle cx="130" cy="130" r="10" fill="#fff"/>
  
  <!-- Central core -->
  <circle cx="256" cy="256" r="60" fill="#ecf0f1"/>
  <circle cx="256" cy="256" r="40" fill="#3498db"/>
  <circle cx="256" cy="256" r="20" fill="#2980b9"/>
</svg> 